<svg id="Layer_1" data-name="Layer 1" xmlns="http://www.w3.org/2000/svg" width="136" height="60" viewBox="0 0 136 60"><defs><style>.cls-1{fill:#00aff0;}</style></defs><title>skype-logo-136x60</title><path class="cls-1" d="M136,18.75a7.41,7.41,0,0,1-.35,2.27,7.41,7.41,0,0,1-2.55,3.65,7.65,7.65,0,0,1-2,1.11,19.64,19.64,0,0,1,.38,3.9,19.18,19.18,0,0,1-.7,5.2,19.62,19.62,0,0,1-13.65,13.67,19.12,19.12,0,0,1-5.19.7,19.52,19.52,0,0,1-5.72-.85A18.8,18.8,0,0,1,101,45.88a15.34,15.34,0,0,1-10.36,4,9.87,9.87,0,0,1-1.07-.06l-1.07-.12a10,10,0,0,1-1.32,3.24,10.48,10.48,0,0,1-2.25,2.55,10.25,10.25,0,0,1-3,1.67,9.87,9.87,0,0,1-3.42.6,10.17,10.17,0,0,1-5.25-1.46,10.46,10.46,0,0,1-2.12-1.71,9.56,9.56,0,0,1-1.61-2.27,11.19,11.19,0,0,1-1.65,3.15,11.37,11.37,0,0,1-5.54,4,10.92,10.92,0,0,1-3.48.56,11.09,11.09,0,0,1-3.45-.54,11.21,11.21,0,0,1-5.52-3.9,10.82,10.82,0,0,1-1.65-3.09,14.41,14.41,0,0,1-3.88-.35,16,16,0,0,1-3.66-1.32,17,17,0,0,1-3.25-2.14,15.5,15.5,0,0,1-2.65-2.84,19.81,19.81,0,0,1-5.52,2.74,20.05,20.05,0,0,1-6,.92,19.46,19.46,0,0,1-7.81-1.58A20.19,20.19,0,0,1,4.8,37.22a19.43,19.43,0,0,1-1.58-7.81q0-.91.09-1.85A10.16,10.16,0,0,1,.8,16.14a10.11,10.11,0,0,1,5.38-5.39,9.91,9.91,0,0,1,4-.79,10,10,0,0,1,4.8,1.2A20,20,0,0,1,19,9.79a19.73,19.73,0,0,1,4.3-.47q0.76,0,1.51.06t1.51,0.18a8.81,8.81,0,0,1,.6-3.69,9.23,9.23,0,0,1,1.95-3,9.38,9.38,0,0,1,3-2.06A9.09,9.09,0,0,1,39,.72a9.54,9.54,0,0,1,2.93,1.95,9.16,9.16,0,0,1,2,2.9,8.74,8.74,0,0,1,.73,3.54,15.13,15.13,0,0,1,3.48-1.48,13.71,13.71,0,0,1,3.75-.51A14,14,0,0,1,62,11.43,17.26,17.26,0,0,1,68.18,6,17.52,17.52,0,0,1,72,4.53,16.71,16.71,0,0,1,76.14,4a17,17,0,0,1,4.51.6,16.74,16.74,0,0,1,4.13,1.74A17.13,17.13,0,0,1,88.3,9.13,17.39,17.39,0,0,1,91,12.77a7.25,7.25,0,0,1,2-.92,8.15,8.15,0,0,1,2.21-.31,7.87,7.87,0,0,1,2.93.56,8.06,8.06,0,0,1,2.52,1.58A19.5,19.5,0,0,1,117.81,11a19.65,19.65,0,0,1,5.3,2.59,7.26,7.26,0,0,1,2.47-1.71,7.48,7.48,0,0,1,2.94-.6,7.28,7.28,0,0,1,2.91.59,7.7,7.7,0,0,1,2.39,1.6,7.42,7.42,0,0,1,1.61,2.37A7.32,7.32,0,0,1,136,18.75Zm-10.21,8.73a10.86,10.86,0,0,0-1.07-4.86,11.38,11.38,0,0,0-2.84-3.68,12.81,12.81,0,0,0-4.1-2.33,14.54,14.54,0,0,0-4.87-.82,16.17,16.17,0,0,0-4.59.63,12.14,12.14,0,0,0-3.82,1.87,11.81,11.81,0,0,0-2.88,3.09,13.13,13.13,0,0,0-1.76,4.28,14.61,14.61,0,0,0-1.27-3.94,11.11,11.11,0,0,0-2.27-3.12,10.06,10.06,0,0,0-3.22-2.07,10.82,10.82,0,0,0-4.1-.75,11.17,11.17,0,0,0-2.36.25,7.5,7.5,0,0,0-2.14.81,7.38,7.38,0,0,0-1.77,1.41,6.38,6.38,0,0,0-1.26,2.05H81.41q0-.91-0.07-1.73a3.81,3.81,0,0,0-.4-1.44,2.4,2.4,0,0,0-1-1,3.63,3.63,0,0,0-1.78-.37,4,4,0,0,0-1.76.38,2.38,2.38,0,0,0-1.17,1.32,3.2,3.2,0,0,0-1.35-1.27,4.07,4.07,0,0,0-1.84-.42,2.78,2.78,0,0,0-2.27.94A5.86,5.86,0,0,0,68.68,19L64.32,35.16H64.23L59.64,18.49a3.41,3.41,0,0,0-1.35-2A4,4,0,0,0,56,15.79a3.45,3.45,0,0,0-1.8.5,3.32,3.32,0,0,0-1.27,1.35,3.69,3.69,0,0,0-1.26-1.32,3.14,3.14,0,0,0-1.73-.53,3.05,3.05,0,0,0-1.52.4,4.83,4.83,0,0,0-1.23,1L39.27,26V9.73a3.53,3.53,0,0,0-.94-2.61,3.56,3.56,0,0,0-2.63-.94,3.57,3.57,0,0,0-2.62.94,3.49,3.49,0,0,0-1,2.61V32A5.81,5.81,0,0,0,31,30.1a8,8,0,0,0-1.68-1.45,11.73,11.73,0,0,0-2.06-1.05A23,23,0,0,0,25,26.84q-1.16-.32-2.28-0.56t-2.09-.47l-1.2-.26a6.3,6.3,0,0,1-1.26-.41,2.9,2.9,0,0,1-1-.7,1.84,1.84,0,0,1,0-2.33,2.69,2.69,0,0,1,1.08-.67,6.12,6.12,0,0,1,1.36-.29q0.72-.07,1.24-0.07a6.24,6.24,0,0,1,1.89.25,6.88,6.88,0,0,1,1.38.6,5.51,5.51,0,0,1,1.05.79,10.89,10.89,0,0,0,.91.79,5.49,5.49,0,0,0,1,.6,2.68,2.68,0,0,0,1.19.25,2.74,2.74,0,0,0,2.14-.91,3.21,3.21,0,0,0,.82-2.23,3,3,0,0,0-.6-1.86,5.7,5.7,0,0,0-1.55-1.41,10.22,10.22,0,0,0-2.15-1,19.78,19.78,0,0,0-2.41-.66q-1.21-.25-2.31-0.37a18,18,0,0,0-1.86-.12,17.18,17.18,0,0,0-3.75.42,11.07,11.07,0,0,0-3.44,1.38,7.92,7.92,0,0,0-2.52,2.48,6.68,6.68,0,0,0-1,3.69,7.48,7.48,0,0,0,.5,2.87,6.12,6.12,0,0,0,1.36,2.05,7.46,7.46,0,0,0,2,1.41A17.36,17.36,0,0,0,16,31q1.29,0.4,2.63.67t2.6,0.6l1.3,0.31a6.85,6.85,0,0,1,1.33.44,3.11,3.11,0,0,1,1,.75,2.06,2.06,0,0,1,0,2.51,3.32,3.32,0,0,1-1.05.79,4.8,4.8,0,0,1-1.35.42,8.11,8.11,0,0,1-1.3.12A6.93,6.93,0,0,1,19,37.32a6.42,6.42,0,0,1-1.64-.82,9.68,9.68,0,0,1-1.26-1.05q-0.56-.56-1.08-1.05a5.61,5.61,0,0,0-1.1-.82,2.66,2.66,0,0,0-1.33-.32,2.72,2.72,0,0,0-2.12.82,3.1,3.1,0,0,0-.75,2.17,3.59,3.59,0,0,0,.72,2.2,7.52,7.52,0,0,0,1.77,1.7,10.69,10.69,0,0,0,2.27,1.2,21.65,21.65,0,0,0,2.21.73,18.75,18.75,0,0,0,2.41.42,22.54,22.54,0,0,0,2.44.13,16.4,16.4,0,0,0,3.25-.34,12.14,12.14,0,0,0,3.13-1.08,9.89,9.89,0,0,0,2.6-1.92,6.78,6.78,0,0,0,1.64-2.84v2.18a6.39,6.39,0,0,0,.29,2,2.89,2.89,0,0,0,1,1.45,3.73,3.73,0,0,0,2.24.56,3.26,3.26,0,0,0,3.57-3.57V33.63l2.49-2.2L48.49,41a3.74,3.74,0,0,0,3.22,1.64A3.16,3.16,0,0,0,53,42.35a3.53,3.53,0,0,0,1.08-.76,3.6,3.6,0,0,0,.73-1.1,3.31,3.31,0,0,0,.26-1.32,3.79,3.79,0,0,0-.76-2.31l-7.4-10,5.27-5.51L52.5,21l0.29-.34,0.29,0.92,0.29,0.92,7.43,21.15a3.72,3.72,0,0,1-.78,1.7,2.24,2.24,0,0,1-1.71.56,10.39,10.39,0,0,0-1.48.1,3.84,3.84,0,0,0-1.29.41,2.35,2.35,0,0,0-.91.86,2.87,2.87,0,0,0-.34,1.49,2.81,2.81,0,0,0,.41,1.57,3.14,3.14,0,0,0,1.05,1,4.56,4.56,0,0,0,1.43.54,8.53,8.53,0,0,0,4.73-.41A6.68,6.68,0,0,0,64.17,50a9.42,9.42,0,0,0,1.58-2.36A29.47,29.47,0,0,0,67,44.68l8-22.73v26.6a3.26,3.26,0,0,0,3.57,3.57,3.52,3.52,0,0,0,2.6-.94,3.57,3.57,0,0,0,.94-2.64V39H82.2a6.42,6.42,0,0,0,3,2.77,9.8,9.8,0,0,0,4,.84,10.78,10.78,0,0,0,4-.7,9.6,9.6,0,0,0,3.12-2,10.79,10.79,0,0,0,2.21-3,15.37,15.37,0,0,0,1.32-3.81,12.38,12.38,0,0,0,1.83,4.22,11.23,11.23,0,0,0,3,3,12.73,12.73,0,0,0,3.91,1.73,18.25,18.25,0,0,0,4.58.56,16.7,16.7,0,0,0,2-.15,20.76,20.76,0,0,0,2.41-.45,17,17,0,0,0,2.44-.81,10.17,10.17,0,0,0,2.15-1.2,6.14,6.14,0,0,0,1.54-1.61,3.76,3.76,0,0,0,.58-2.08,2.42,2.42,0,0,0-.25-1.07,3,3,0,0,0-.66-0.89,3.14,3.14,0,0,0-.94-0.6,2.8,2.8,0,0,0-1.08-.22,2.7,2.7,0,0,0-1.23.26,5.45,5.45,0,0,0-1,.64q-0.47.38-1,.85a6.22,6.22,0,0,1-1.2.85,7.6,7.6,0,0,1-1.61.64,8.25,8.25,0,0,1-2.24.26,7.68,7.68,0,0,1-2.71-.45A5.68,5.68,0,0,1,107,33.25a7.37,7.37,0,0,1-.47-2.7h16.09a7.17,7.17,0,0,0,1.51-.13,2,2,0,0,0,1-.48,1.92,1.92,0,0,0,.51-1A6.55,6.55,0,0,0,125.79,27.48ZM93.08,29.15a14.21,14.21,0,0,1-.28,2.75,8.28,8.28,0,0,1-.94,2.55,5.61,5.61,0,0,1-1.74,1.88,4.75,4.75,0,0,1-2.72.73,4.82,4.82,0,0,1-2.72-.72,5.62,5.62,0,0,1-1.76-1.86,8,8,0,0,1-1-2.55,14.28,14.28,0,0,1-.28-2.78A14,14,0,0,1,82,26.37a8,8,0,0,1,.94-2.49,5.26,5.26,0,0,1,1.76-1.8,5.06,5.06,0,0,1,2.74-.69,4.72,4.72,0,0,1,2.66.72,5.74,5.74,0,0,1,1.76,1.83,8,8,0,0,1,1,2.51A13.17,13.17,0,0,1,93.08,29.15Zm26-2.7H106.57a7.93,7.93,0,0,1,2.17-4.12,5.9,5.9,0,0,1,4.3-1.57,5.75,5.75,0,0,1,2.27.44,5.82,5.82,0,0,1,1.83,1.22,6.39,6.39,0,0,1,1.29,1.82A7.15,7.15,0,0,1,119.06,26.46Zm8.43-9.32V16.32H123.8v0.82h1.35V20.8h1V17.14h1.35Zm5.35,3.66V16.32h-1.38l-1,3.08h0l-1.05-3.08H128V20.8h0.91V17.64h0L130,20.8h0.76l1.11-3.19h0V20.8h0.91Z"/></svg>